<svg xmlns="http://www.w3.org/2000/svg" width="129.2165" height="61.1399" viewBox="0 0 129.2165 61.1399"><title>Asset 4</title><g id="Layer_2" data-name="Layer 2"><g id="Layer_1-2" data-name="Layer 1"><path d="M59.94,30.22A29.72,29.72,0,1,0,29.0721,59.9105a22.29,22.29,0,1,1,2.2953,0A29.7155,29.7155,0,0,0,59.94,30.22Z" fill="#f47f72" fill-opacity="0.75" stroke="#fff" stroke-miterlimit="10"/><path d="M30.22,59.94c-.3849,0-.7663-.0146-1.1477-.0291Q29.6424,59.9395,30.22,59.94Z" fill="#f47f72" fill-opacity="0.75" stroke="#fff" stroke-miterlimit="10"/><path d="M31.3674,59.9105c-.3813.0145-.7627.0291-1.1476.0291Q30.7972,59.94,31.3674,59.9105Z" fill="#f47f72" fill-opacity="0.75" stroke="#fff" stroke-miterlimit="10"/><path d="M52.51,37.65A22.29,22.29,0,1,0,29.0721,59.9105c.3814.0145.7628.0291,1.1477.0291A14.86,14.86,0,1,1,45.08,45.08,14.86,14.86,0,0,1,30.22,59.94c.3849,0,.7663-.0146,1.1476-.0291A22.2906,22.2906,0,0,0,52.51,37.65Z" fill="#f47f72" fill-opacity="0.75" stroke="#fff" stroke-miterlimit="10"/><circle cx="30.2198" cy="45.0797" r="14.8599" transform="translate(-9.5488 8.149) rotate(-13.2825)" fill="#f47f72" fill-opacity="0.75" stroke="#fff" stroke-miterlimit="10"/><text transform="translate(85.0016 57.1399)" font-size="16" fill="#231f20" font-family="MyriadPro-Regular, Myriad Pro">$600</text><text transform="translate(84.8658 37.1399)" font-size="16" fill="#231f20" font-family="MyriadPro-Regular, Myriad Pro">$1,200</text><text transform="translate(84.8658 17.1399)" font-size="16" fill="#231f20" font-family="MyriadPro-Regular, Myriad Pro">$2,400</text><line x1="49.6656" y1="11.3053" x2="80.5972" y2="11.3053" fill="none" stroke="#231f20" stroke-miterlimit="10"/><line x1="49.6656" y1="31.3053" x2="80.5972" y2="31.3053" fill="none" stroke="#231f20" stroke-miterlimit="10"/><line x1="41.6656" y1="54.3053" x2="80.5972" y2="54.3053" fill="none" stroke="#231f20" stroke-miterlimit="10"/></g></g></svg>